<svg xmlns="http://www.w3.org/2000/svg" width="19" height="23" viewBox="0 0 19 23" fill="none">
  <path
    d="M13.0492 7.29456C13.0492 6.0788 12.6979 5.1197 11.9955 4.41726C11.2931 3.71482 10.2799 3.3636 8.9561 3.3636C7.74034 3.3636 6.75422 3.6743 5.99775 4.29568C5.26829 4.89006 4.90356 5.63302 4.90356 6.52458H0.445778C0.445778 5.41689 0.810506 4.36323 1.53996 3.3636C2.26942 2.33696 3.29606 1.52645 4.61989 0.932083C5.94372 0.310694 7.47018 0 9.19926 0C11.7118 0 13.7111 0.634896 15.197 1.90469C16.71 3.14747 17.4664 4.9576 17.4664 7.33509V17.0612C17.4664 18.8713 17.7366 20.3843 18.2769 21.6V21.9242H13.6976C13.4814 21.4649 13.3058 20.749 13.1707 19.7764C11.5767 21.4784 9.61802 22.3295 7.29456 22.3295C5.86267 22.3295 4.59287 22.0593 3.48518 21.519C2.4045 20.9516 1.55347 20.1816 0.932083 19.209C0.310694 18.2364 0 17.1422 0 15.9265C0 13.63 0.851028 11.8739 2.55309 10.6582C4.28217 9.44241 6.68668 8.83453 9.76661 8.83453H13.0492V7.29456ZM8.06454 18.7227C9.19925 18.7227 10.2124 18.4525 11.1039 17.9122C11.9955 17.3449 12.6439 16.6559 13.0492 15.8454V11.6713H10.2529C8.36173 11.6713 6.91633 11.9955 5.9167 12.6439C4.91708 13.2923 4.41726 14.2244 4.41726 15.4402C4.41726 16.4128 4.74146 17.2098 5.38987 17.8312C6.03828 18.4255 6.92983 18.7227 8.06454 18.7227Z"
    fill="white" />
</svg>