{"asset":{"version":"2.0","generator":"THREE.GLTFExporter r180"},"scenes":[{"name":"AuxScene","nodes":[0]}],"scene":0,"nodes":[{"children":[1]},{"matrix":[1,0,0,0,0,1,0,0,0,0,1,0,-0.2591020055115223,-0.05000000074505806,0.25453150272369385,1],"children":[2]},{"mesh":0}],"bufferViews":[{"buffer":0,"byteOffset":0,"byteLength":1584,"target":34962,"byteStride":12},{"buffer":0,"byteOffset":1584,"byteLength":1056,"target":34962,"byteStride":8},{"buffer":0,"byteOffset":2640,"byteLength":1584,"target":34962,"byteStride":12}],"buffers":[{"byteLength":4224,"uri":"data:application/octet-stream;base64,"}],"accessors":[{"bufferView":0,"componentType":5126,"count":132,"max":[0.4753130078315735,0.10000000149011612,6.123233849335533e-18],"min":[0.0428910031914711,0,-0.5090630054473877],"type":"VEC3"},{"bufferView":1,"componentType":5126,"count":132,"max":[47.53129959106445,1],"min":[-50.90629959106445,-50.90629959106445],"type":"VEC2"},{"bufferView":2,"componentType":5126,"count":132,"max":[1,1,1],"min":[-1,-1,-1],"type":"VEC3"}],"materials":[{"pbrMetallicRoughness":{"metallicFactor":0.15,"roughnessFactor":0.35},"doubleSided":true}],"meshes":[{"primitives":[{"mode":4,"attributes":{"POSITION":0,"TEXCOORD_0":1,"NORMAL":2},"material":0}]}]}